<?xml version="1.0" encoding="UTF-8" standalone="no"?>
<!-- Created with Inkscape (http://www.inkscape.org/) -->

<svg
   xmlns:dc="http://purl.org/dc/elements/1.1/"
   xmlns:cc="http://creativecommons.org/ns#"
   xmlns:rdf="http://www.w3.org/1999/02/22-rdf-syntax-ns#"
   xmlns:svg="http://www.w3.org/2000/svg"
   xmlns="http://www.w3.org/2000/svg"
   xmlns:sodipodi="http://sodipodi.sourceforge.net/DTD/sodipodi-0.dtd"
   xmlns:inkscape="http://www.inkscape.org/namespaces/inkscape"
   id="svg3336"
   version="1.1"
   inkscape:version="0.91 r13725"
   width="3740"
   height="5000"
   viewBox="0 0 3740 5000"
   sodipodi:docname="tree.svg">
  <metadata
     id="metadata3342">
    <rdf:RDF>
      <cc:Work
         rdf:about="">
        <dc:format>image/svg+xml</dc:format>
        <dc:type
           rdf:resource="http://purl.org/dc/dcmitype/StillImage" />
        <dc:title></dc:title>
      </cc:Work>
    </rdf:RDF>
  </metadata>
  <defs
     id="defs3340" />
  <sodipodi:namedview
     pagecolor="#ffffff"
     bordercolor="#666666"
     borderopacity="1"
     objecttolerance="10"
     gridtolerance="10"
     guidetolerance="10"
     inkscape:pageopacity="0"
     inkscape:pageshadow="2"
     inkscape:window-width="853"
     inkscape:window-height="1217"
     id="namedview3338"
     showgrid="false"
     inkscape:zoom="0.27528007"
     inkscape:cx="1944.6194"
     inkscape:cy="3100.101"
     inkscape:window-x="-8"
     inkscape:window-y="-8"
     inkscape:window-maximized="1"
     inkscape:current-layer="svg3336" />
  <path
     style="fill:none;fill-rule:evenodd;stroke:#000000;stroke-width:1px;stroke-linecap:butt;stroke-linejoin:miter;stroke-opacity:1"
     d="m 2194.2047,498.47726 c -43.7706,-4.5938 -94.6232,-5.4251 -136.691,-1.50469 -35.9527,8.77633 -19.2651,52.65796 -49.5573,67.77733 -61.8112,33.73052 -218.4175,19.03435 -241.5661,41.07999 -23.8956,14.0659 -12.2574,24.49336 -25.4477,49.90673 -7.2043,15.85903 -36.5527,28.96816 -36.0716,52.9507 3.5576,22.72295 38.9923,28.04075 14.9713,63.99667 -28.8326,23.79019 -192.8331,32.96735 -206.2468,42.93414 -11.8665,8.68297 -5.186,36.44485 -17.0081,41.31926 l -27.5032,9.19183 c -7.5055,3.81289 -14.0022,4.12612 -20.6596,39.08112 -9.6577,16.83697 -49.3495,11.54914 -76.7488,36.27318 -13.6045,19.5027 -13.9741,50.26916 15.8151,65.72158 168.8612,70.099 -112.3928,52.8631 -171.2202,74.9136 -18.7462,17.4804 -23.895,21.3225 -42.3834,53.3003 -31.5312,37.3489 -275.01734,1.5421 -286.29772,62.492 -30.50077,62.618 -51.66918,29.28 -66.16246,73.7771 -28.27991,72.0554 -221.84462,-12.5298 -264.13345,70.3083 -42.88061,32.3904 -118.53534,-3.8094 -128.96606,49.0064 -18.89792,61.8282 -292.02115,-6.5435 -316.26727,56.3819 -12.313135,41.3402 -64.587715,1.629 -87.891593,57.7685 1.544325,63.5866 81.680153,44.3661 71.339912,80.6287 -49.072691,115.4524 73.040501,59.1109 88.412511,112.737 27.46403,137.6453 445.16609,55.357 603.62674,122.8159 17.58907,10.0992 25.08389,16.5132 29.43519,31.8748 -19.36978,-2.2083 -93.53801,-21.8345 -94.00395,28.2955 23.89061,74.0383 -193.06103,17.8903 -189.00507,84.0142 30.66528,31.654 81.52955,20.3206 62.86814,54.8504 -22.96603,36.1578 70.14177,25.3932 65.99556,33.7235 6.03562,14.1761 90.53561,33.8036 22.94113,57.6394 -42.12831,56.4084 107.73494,29.4626 89.22387,49.1222 -41.92371,55.7171 206.5497,25.4676 326.18242,31.4207 130.954,-4.5418 326.9121,35.2631 301.2235,-33.6968 -10.7713,-51.8516 165.8224,-19.6138 170.5443,-42.2261 5.7323,-27.4511 68.3224,-11.1895 74.1171,-30.457 1.5293,-42.3855 70.0399,-21.6696 141.0437,-28.2422 71.9154,40.155 135.7302,98.9236 115.889,143.3031 -17.0932,52.1617 -50.7261,95.1482 -33.7968,194.3083 10.2127,59.8188 6.9638,82.8342 -8.6911,98.6371 -32.3052,21.3634 -68.7065,41.5868 -105.3446,59.535 -36.6381,17.9482 -86.6814,31.8048 -114.9388,73.5824 -12.1903,35.3866 -8.5472,35.7791 -45.7821,75.2174 -17.5287,13.7343 -23.0666,69.4839 -32.3052,97.8583 -12.0875,37.1247 1.6198,39.3632 -24.0634,82.0918 -8.9488,15.4625 -21.3532,24.6419 -64.7481,47.1712 -8.9062,4.6238 -45.3017,46.8 -112.9316,51.2044 -34.8545,0.6476 -69.7091,26.1198 -104.5636,50.323 l -421.26372,4.2025 1.81633,188.5777 79.18841,-0.6233 c 27.06537,62.8224 26.45221,126.5011 189.77078,185.8799 l -0.3117,76.4372 358.7073,1.2198 2.7245,-87.62 524.3226,0.3116 0,83.0793 360.3544,0 0.7657,-82.1978 c 115.8877,-18.7788 157.8986,-90.8605 184.6334,-164.7073 l 77.9954,0.3117 5.449,-201.8619 -352.5595,-2.5231 c -55.2832,-100.0711 -116.0535,-56.0168 -108.7793,-244.9784 1.7978,-61.5535 14.7845,-107.6931 46.5326,-136.8259 22.3514,-20.5101 40.1299,-56.7172 78.1263,-88.4256 61.4612,-40.466 84.7068,-102.074 115.6497,-151.4042 23.3898,-12.6325 52.1183,-34.4268 63.7039,-43.9848 19.9758,-25.0065 41.4516,-57.772 69.9955,-57.8324 17.1204,-0.036 40.3612,-14.2819 51.4226,-25.1579 89.333,-8.9846 107.2782,-39.0199 123.0741,-55.2912 24.2704,24.4202 113.764,18.1465 119.3524,-13.3431 38.7685,-26.6479 94.3572,10.9109 112.9574,-39.9115 7.3354,-46.0796 202.1032,-3.1718 203.6136,-61.6293 21.6814,-92.013 399.8547,13.5294 400.8112,-112.0359 46.8069,-24.701 92.6354,-43.3212 57.5561,-85.7392 -89.4645,-56.0141 -324.1924,26.9231 -319.6718,-81.8674 263.8207,-1.1475 138.6558,-65.3188 256.226,-95.8123 101.589,-0.391 233.3785,-42.6372 85.3173,-83.0225 -42.2032,-2.0406 -2.0747,-83.0752 -80.5105,-86.4003 -96.6267,0.4328 -12.6452,-63.2402 -106.1595,-65.2621 -64.6379,3.1461 -110.3121,-58.5392 -1.596,-77.1896 48.4097,-3.4016 94.0159,-103.2185 -25.1926,-114.3063 -284.4528,9.3834 -83.5996,-104.0974 -225.2539,-104.5635 -140.5091,19.8988 -48.8989,-78.5188 -122.453,-91.078 -66.3969,6.7407 4.6047,-113.6804 -115.7921,-116.2329 -419.3962,17.4657 -168.2612,-76.91644 -284.7019,-126.2872 -61.656,-18.70526 13.4182,-66.00515 -65.7406,-78.56515 -130.9324,-27.41905 -20.1023,-57.41875 -40.016,-106.28863 -24.2172,-43.14041 -95.6693,-26.51871 -115.4942,-35.12744 -18.6281,-8.08903 -6.3578,-54.97206 -33.1399,-68.88526 -99.02,-16.7925 -167.839,-7.14246 -183.9427,-25.8979 -16.1038,-18.75544 -7.1056,-44.72475 -30.1204,-59.54856 z"
     id="path4154"
     inkscape:connector-curvature="0"
     sodipodi:nodetypes="cccccccccccccccccccccccccccccccccscccscsccscsccccccccccccccccccscccsccccccccccccccccccccscsc" />
  <path
     style="fill:none;fill-rule:evenodd;stroke:#000000;stroke-width:1px;stroke-linecap:butt;stroke-linejoin:miter;stroke-opacity:1"
     d="m 1586.566,1864.1028 c 60.4293,-2.1817 113.5501,-6.4582 177.0924,-10.898 16.825,18.2058 61.0934,39.0699 72.6532,62.6635 -3.8778,15.5814 -8.7208,30.2942 -36.3267,24.5204 -75.6804,-22.0672 -69.626,-29.2011 -119.8778,-36.3266 -39.6566,-20.6129 -67.5925,6.568 -108.9799,-7.2653 0.2834,-20.6075 9.0335,-24.9802 15.4388,-32.694 z"
     id="path4156"
     inkscape:connector-curvature="0"
     sodipodi:nodetypes="ccccccc" />
  <path
     style="fill:none;fill-rule:evenodd;stroke:#000000;stroke-width:1px;stroke-linecap:butt;stroke-linejoin:miter;stroke-opacity:1"
     d="m 1888.0771,1762.3882 c 68.1912,-12.6881 165.5628,-1.4214 263.3681,2.7245 -0.8159,40.1082 -24.9775,21.0689 -52.6736,67.2044 -30.5749,7.689 -44.8028,28.2866 -77.1941,40.8674 -20.6692,-8.7084 -59.092,-30.9907 -73.1894,-52.2953 -15.0262,-22.7082 -44.5947,-22.9513 -60.311,-58.501 z"
     id="path4158"
     inkscape:connector-curvature="0"
     sodipodi:nodetypes="ccccsc" />
  <path
     style="fill:none;fill-rule:evenodd;stroke:#000000;stroke-width:1px;stroke-linecap:butt;stroke-linejoin:miter;stroke-opacity:1"
     d="m 2268.1456,1844.375 c -30.5065,39.4833 -79.4032,29.5753 -112.3798,55.8688 -24.6045,23.5721 -67.2847,95.8805 -29.5399,157.9739 28.9278,57.7193 35.6288,132.4296 46.8784,209.9897 30.4303,32.8649 28.5172,71.8121 31.4664,129.0762 33.1006,-54.3128 79.7482,-87.311 131.6449,-104.0316 78.4861,-89.5423 98.4617,-74.4464 141.2775,-85.4086 35.0581,-19.0605 57.6283,-27.3898 91.1882,-55.2266 -15.2239,-33.0509 -176.4924,-4.5785 -169.533,-16.0544 -28.0991,-73.7923 -182.9471,-19.8826 -215.127,-71.923 -9.967,-45.1007 37.8857,-26.0611 24.4024,-79.6291 7.9743,-33.5196 73.6202,12.0961 54.5845,-57.7954 -22.6739,-55.6677 46.792,-35.2837 53.9424,-75.1339 l -23.1182,-3.8529 z"
     id="path4160"
     inkscape:connector-curvature="0"
     sodipodi:nodetypes="ccccccccccccccc" />
</svg>
